# xmcd
#
# Track frame offsets:
#	150
#	3905
#	7415
#	29665
#	46905
#	64192
#	85682
#	111817
#	127912
#	144022
#	160827
#	170805
#
# Disc length: 2635 seconds
#
# Revision: 1
# Processed by: cddbd v1.5.1PL0 Copyright (c) Steve Scherf et al.
# Submitted via: CDex 1.50Beta5
#
DISCID=960a490c
DTITLE=SNK新世界楽曲雑技団 - 幕末浪漫第二幕 月華の剣士 〜月に咲く華、散りゆく花〜 ARRANGE SOUND TRAX
DYEAR=1900
DGENRE=
TTITLE0=月に咲く華
TTITLE1=散りゆく花
TTITLE2=月華の剣士 〜黎明の決意〜
TTITLE3=渦中
TTITLE4=剣戟腥風
TTITLE5=激情
TTITLE6=黄龍〜宿縁
TTITLE7=黄龍〜常世の思念
TTITLE8=訣別
TTITLE9=月影
TTITLE10=蒼天
TTITLE11=氷上恭子/銀の幻
EXTD=
EXTT0=
EXTT1=
EXTT2=
EXTT3=
EXTT4=
EXTT5=
EXTT6=
EXTT7=
EXTT8=
EXTT9=
EXTT10=
EXTT11=
PLAYORDER=
